<svg width="297" height="166" xmlns="http://www.w3.org/2000/svg"><defs><linearGradient x1="4.7%" y1="50%" y2="50%" id="a"><stop stop-color="#FFF" offset="0%"/><stop stop-color="#DADCE0" offset="100%"/></linearGradient><linearGradient x1="4.7%" y1="50%" y2="50%" id="b"><stop stop-color="#FFF" offset="0%"/><stop stop-color="#DADCE0" offset="47.4%"/><stop stop-color="#FFF" offset="100%"/></linearGradient></defs><g fill="none"><path fill="url(#a)" d="M7.5 162H69v3.5H7.5z"/><path fill="url(#b)" d="M183.5 162H297v3.5H183.5z"/><g transform="translate(0 57)"><path fill="#BDC1C6" d="M54.5 42h15v18h-15z"/><path fill="#BDC1C6" d="M32.8 20.1l24.4 24.4-12.7 12.7-24.4-24.4z"/><path d="M11.4 16.2l-.2 1.3a6.2 6.2 0 1 0 5.9-6.2c-.8 0-1.6-.2-2.1-.7L8.4 4a.8.8 0 0 1 .2-1.3A17.3 17.3 0 1 1 3 8a.8.8 0 0 1 1.2 0l6.6 6.4c.5.5.7 1.2.5 1.9z" fill="#DADCE0"/><circle fill="#DADCE0" cx="51.5" cy="51" r="10.5"/></g><g transform="translate(200.5 104)"><path d="M9 42h32.5v18H9a9 9 0 0 1 0-18z" fill="#BDC1C6"/><path fill="#BDC1C6" d="M62.4 20.5L38 45l12.8 12.7 24.4-24.4z"/><path d="M84.9 16l.1 1.3a6.2 6.2 0 1 1-5.8-6.3c.7.1 1.5-.1 2-.7l6.6-6.5a.8.8 0 0 0-.1-1.3 17.3 17.3 0 1 0 5.5 5.2.8.8 0 0 0-1.3-.1L85.3 14c-.5.5-.6 1.2-.4 1.8z" fill="#E8EAED"/><circle fill="#E8EAED" cx="44.5" cy="51" r="10.5"/></g><g transform="translate(68 79.5)"><path d="M77.5 0h30a8 8 0 0 1 8 8v78h-38a8 8 0 0 1-8-8V8a8 8 0 0 1 8-8z" fill="#EFF0F2"/><circle fill="#BABFC5" cx="101.8" cy="28.8" r="8.3"/><path d="M8 0h69.5a8 8 0 0 1 8 8v78H0V8a8 8 0 0 1 8-8z" fill="#CDD0D5"/><path d="M23 47h39.5a4 4 0 0 1 4 4v35H19V51a4 4 0 0 1 4-4z" fill="#3C4043" opacity=".2"/><circle fill="#DADCE0" cx="59" cy="54" r="2.5"/><circle fill="#DADCE0" cx="26.5" cy="54" r="2.5"/></g><g transform="translate(77.5)"><path fill="#9AA0A6" d="M21.5 75.5h42v4h-42z"/><path fill="#A50E0E" d="M37 13.5h4v8h-4z"/><circle fill="#D93025" cx="39" cy="7" r="7"/><path d="M35.5 21h7a6 6 0 0 1 6 6v1.5h-19V27a6 6 0 0 1 6-6z" fill="#9AA0A6"/><rect fill="#EFF0F2" x="46.5" y="27" width="42" height="48.5" rx="8"/><rect fill="#CDD0D5" y="27" width="63.5" height="48.5" rx="8"/><circle fill="#FFF" cx="76" cy="51.5" r="6"/></g><path d="M97.5 58.5h27c.6 0 1 .4 1 1v3a4 4 0 0 1-4 4h-24a4 4 0 1 1 0-8z" fill="#FFF"/><path fill="#E8EAED" d="M97.5 58.5h2.5v8h-2.5z"/><rect fill="#9AA0A6" transform="rotate(-33 94.3 39.8)" x="88.9" y="37.5" width="10.7" height="4.5" rx="2.3"/><rect fill="#9AA0A6" transform="scale(-1 1) rotate(-24 0 622.2)" x="118.5" y="37.5" width="10.7" height="4.5" rx="2.3"/><path d="M122 49.8h2a1.4 1.4 0 0 0 1.5-1.3 3.5 3.5 0 1 0-7 0 1.4 1.4 0 0 0 1.5 1.4l2-.1zm-25.5 0h2a1.4 1.4 0 0 0 1.5-1.3 3.5 3.5 0 0 0-7 0 1.4 1.4 0 0 0 1.5 1.4l2-.1z" fill="#3C4043"/><path fill="#E8EAED" d="M119 58.5h2.5v8H119zm-7.2 0h2.5v8h-2.5zm-7.1 0h2.5v8h-2.5z"/><path d="M110.5 111.5h18.8c0-9.7-8.5-17.5-18.8-17.5s-18.6 7.8-18.7 17.5h18.7z" fill="#F8F9FA"/><rect fill="#FBBC04" transform="rotate(13 103.4 111.8)" x="94.2" y="110" width="18.5" height="3.5" rx="1.8"/><path d="M90.5 115.8c-1.8 0-3.3-1.4-3.3-3.1v-1c0-12 10.5-21.9 23.3-21.9 13 0 23.3 9.8 23.3 22v.9c0 1.7-1.4 3-3.2 3h-40zm20-4.3h18.8c0-9.7-8.5-17.5-18.8-17.5s-18.6 7.8-18.7 17.5h18.7z" fill="#4285F4"/></g></svg>